<?xml version="1.0" encoding="UTF-8"?>
<svg xmlns="http://www.w3.org/2000/svg" viewBox="0 0 1095 1095" width="1095" height="1095">
<path d="M526.61 71.44C567.71 68.85 609.4 73.06 649.53 81.87C873.12 130.97 1045.08 334.86 1046.94 565.5C1047.3 610.36 1041.22 655.58 1027.94 698.46C989.07 823.97 894.53 933.06 777.15 991.63C709.85 1025.22 643.92 1043.28 568.5 1046.67C498.06 1049.84 425.79 1038.42 360.26 1012.27C299.52 988.03 242.29 953.03 195.68 906.82C143.5 855.1 100.73 794.74 74.88 725.54C57.94 680.2 49.17 631.82 47.95 583.5C42.86 381.39 164.65 197.74 347.01 114.52C403.53 88.72 464.79 75.33 526.61 71.44ZM344.57 246.47C337.11 246.64 329.87 247.95 322.83 250.41C303.09 257.32 287.65 274.19 283.42 294.79C281.1 306.13 282.14 318 282.09 329.5C282.01 347.5 282.2 365.5 282.11 383.5C282.04 397.5 282.08 411.5 282.11 425.5C282.32 537.83 282.11 650.17 282.23 762.5C282.26 784.5 282.29 806.5 282.39 828.5C282.5 851.82 281.57 871.55 299.51 888.99C317.72 906.68 341.4 903.62 364.5 903.24C378.84 903 393.17 902.51 407.5 902.2C416.78 902 426.31 902.5 435.5 901.09C441.07 900.23 446.59 898.76 451.55 896.03C466.15 887.98 476.57 874.23 478.69 857.44C479.68 849.58 479.14 841.41 479.14 833.5C479.15 820.5 479.16 807.5 479.15 794.5C479.14 783.17 479.16 771.83 479.16 760.5C479.16 753.83 479.16 747.17 479.16 740.5C479.17 730.09 478.33 718.25 488.04 711.54C497.28 705.15 510.85 707.42 521.5 707.29C547.17 706.99 572.83 706.7 598.5 706.57C619.71 706.45 641.22 706.87 662.34 704.6C712.52 699.22 762.67 681.29 800.26 646.76C848.74 602.21 869.08 542.53 867.28 477.5C865.27 405.1 835.97 336.46 777.03 292.48C763.42 282.33 748.78 273.04 733.05 266.47C708.28 256.14 682.24 249.67 655.48 247.3C624.22 244.54 590.08 246.3 558.5 246.33C507.83 246.37 457.17 246.33 406.5 246.45C385.87 246.49 365.19 246.01 344.57 246.47ZM399.5 600.46C398.08 594.41 398.8 587.76 398.79 581.5C398.77 570.83 398.76 560.17 398.74 549.5C398.71 535.4 399.03 521.81 403.79 508.36C406.72 500.09 410.62 492.39 415.68 485.23C431.42 462.98 456.59 449.39 483.5 446.13C494.38 444.81 505.57 445.47 516.5 445.42C532.83 445.35 549.17 445.34 565.5 445.31C574.83 445.3 584.17 445.23 593.5 445.28C598.54 445.3 604.41 446.02 609.32 444.72C618.61 442.25 616.93 430.75 616.94 423.5C616.97 412.17 617.08 400.83 616.99 389.5C616.92 380.59 617.22 371.26 626.23 366.69C629.62 364.97 633.62 364.36 637.34 365.27C644.9 367.14 659.45 381.18 665.85 386.62C693.24 409.94 721.38 432.51 749.19 455.33C756.52 461.34 763.89 467.31 771.22 473.31C774.64 476.1 779.65 479.17 781.12 483.5C782.99 489.02 779.25 492.68 775.36 495.89C767.34 502.55 758.92 508.75 750.7 515.17C722.59 537.14 694.17 558.71 665.74 580.26C658.91 585.43 652.03 590.54 645.14 595.62C640.93 598.73 637.03 602.21 631.5 602.29C620.54 602.46 617.26 592.61 617.23 583.5C617.17 570.17 617.28 556.83 617.23 543.5C617.21 537.99 617.94 531.29 612.79 527.7C608.33 524.59 601.63 525.86 596.5 525.86C583.17 525.87 569.83 526.01 556.5 526.02C539.32 526.03 521.63 524.85 504.59 527.34C468.99 532.53 436.18 551.04 413.64 579.17C408.28 585.86 404.04 593.23 399.5 600.46Z" fill="#126dfc" fill-rule="evenodd" stroke="#126dfc" stroke-width="0.25" stroke-linejoin="round"/>
<path d="M344.57 246.47C365.19 246.01 385.87 246.49 406.5 246.45C457.17 246.33 507.83 246.37 558.5 246.33C590.08 246.3 624.22 244.54 655.48 247.3C682.24 249.67 708.28 256.14 733.05 266.47C748.78 273.04 763.42 282.33 777.03 292.48C835.97 336.46 865.27 405.1 867.28 477.5C869.08 542.53 848.74 602.21 800.26 646.76C762.67 681.29 712.52 699.22 662.34 704.6C641.22 706.87 619.71 706.45 598.5 706.57C572.83 706.7 547.17 706.99 521.5 707.29C510.85 707.42 497.28 705.15 488.04 711.54C478.33 718.25 479.17 730.09 479.16 740.5C479.16 747.17 479.16 753.83 479.16 760.5C479.16 771.83 479.14 783.17 479.15 794.5C479.16 807.5 479.15 820.5 479.14 833.5C479.14 841.41 479.68 849.58 478.69 857.44C476.57 874.23 466.15 887.98 451.55 896.03C446.59 898.76 441.07 900.23 435.5 901.09C426.31 902.5 416.78 902 407.5 902.2C393.17 902.51 378.84 903 364.5 903.24C341.4 903.62 317.72 906.68 299.51 888.99C281.57 871.55 282.5 851.82 282.39 828.5C282.29 806.5 282.26 784.5 282.23 762.5C282.11 650.17 282.32 537.83 282.11 425.5C282.08 411.5 282.04 397.5 282.11 383.5C282.2 365.5 282.01 347.5 282.09 329.5C282.14 318 281.1 306.13 283.42 294.79C287.65 274.19 303.09 257.32 322.83 250.41C329.87 247.95 337.11 246.64 344.57 246.47ZM399.5 600.46C404.04 593.23 408.28 585.86 413.64 579.17C436.18 551.04 468.99 532.53 504.59 527.34C521.63 524.85 539.32 526.03 556.5 526.02C569.83 526.01 583.17 525.87 596.5 525.86C601.63 525.86 608.33 524.59 612.79 527.7C617.94 531.29 617.21 537.99 617.23 543.5C617.28 556.83 617.17 570.17 617.23 583.5C617.26 592.61 620.54 602.46 631.5 602.29C637.03 602.21 640.93 598.73 645.14 595.62C652.03 590.54 658.91 585.43 665.74 580.26C694.17 558.71 722.59 537.14 750.7 515.17C758.92 508.75 767.34 502.55 775.36 495.89C779.25 492.68 782.99 489.02 781.12 483.5C779.65 479.17 774.64 476.1 771.22 473.31C763.89 467.31 756.52 461.34 749.19 455.33C721.38 432.51 693.24 409.94 665.85 386.62C659.45 381.18 644.9 367.14 637.34 365.27C633.62 364.36 629.62 364.97 626.23 366.69C617.22 371.26 616.92 380.59 616.99 389.5C617.08 400.83 616.97 412.17 616.94 423.5C616.93 430.75 618.61 442.25 609.32 444.72C604.41 446.02 598.54 445.3 593.5 445.28C584.17 445.23 574.83 445.3 565.5 445.31C549.17 445.34 532.83 445.35 516.5 445.42C505.57 445.47 494.38 444.81 483.5 446.13C456.59 449.39 431.42 462.98 415.68 485.23C410.62 492.39 406.72 500.09 403.79 508.36C399.03 521.81 398.71 535.4 398.74 549.5C398.76 560.17 398.77 570.83 398.79 581.5C398.8 587.76 398.08 594.41 399.5 600.46Z" fill="#ffffff" fill-rule="evenodd" stroke="#ffffff" stroke-width="0.25" stroke-linejoin="round"/>
</svg>